HIERARCHY
ROOT Hips
{
  OFFSET -2.61333 90.3742 0.480215
  CHANNELS 6 Xposition Yposition Zposition Zrotation Xrotation Yrotation
  JOINT Spine
  {
    OFFSET 0 9.92346 -1.22733
    CHANNELS 6 Xposition Yposition Zposition Zrotation Xrotation Yrotation
    JOINT Spine1
    {
      OFFSET -0.000138865 11.6454 -1.42234
      CHANNELS 6 Xposition Yposition Zposition Zrotation Xrotation Yrotation
      JOINT Spine2
      {
        OFFSET 9.14407e-005 13.3602 -1.62646
        CHANNELS 6 Xposition Yposition Zposition Zrotation Xrotation Yrotation
        JOINT Neck
        {
          OFFSET 2.52021e-005 15.0325 0.792905
          CHANNELS 6 Xposition Yposition Zposition Zrotation Xrotation Yrotation
          JOINT Head
          {
            OFFSET 0 10.3218 3.14243
            CHANNELS 6 Xposition Yposition Zposition Zrotation Xrotation Yrotation
            JOINT HeadTop_End
            {
              OFFSET 0.000154173 18.4747 6.6364
              CHANNELS 6 Xposition Yposition Zposition Zrotation Xrotation Yrotation
              End Site
              {
                OFFSET 0 0 0
              }
            }
            JOINT LeftEye
            {
              OFFSET 2.94792 7.68175 9.12073
              CHANNELS 6 Xposition Yposition Zposition Zrotation Xrotation Yrotation
              End Site
              {
                OFFSET 0 0 0
              }
            }
            JOINT RightEye
            {
              OFFSET -2.94448 7.68175 9.1205
              CHANNELS 6 Xposition Yposition Zposition Zrotation Xrotation Yrotation
              End Site
              {
                OFFSET 0 0 0
              }
            }
          }
        }
        JOINT LeftShoulder
        {
          OFFSET 6.10582 9.11042 0.705551
          CHANNELS 6 Xposition Yposition Zposition Zrotation Xrotation Yrotation
          JOINT LeftArm
          {
            OFFSET 12.655 -0.265934 -2.60092
            CHANNELS 6 Xposition Yposition Zposition Zrotation Xrotation Yrotation
            JOINT LeftForeArm
            {
              OFFSET 27.4047 3.91267e-005 0
              CHANNELS 6 Xposition Yposition Zposition Zrotation Xrotation Yrotation
              JOINT LeftHand
              {
                OFFSET 27.6145 2.89518e-005 1.96466e-005
                CHANNELS 6 Xposition Yposition Zposition Zrotation Xrotation Yrotation
                JOINT LeftHandMiddle1
                {
                  OFFSET 12.7755 1.3342e-005 2.04185e-005
                  CHANNELS 6 Xposition Yposition Zposition Zrotation Xrotation Yrotation
                  JOINT LeftHandMiddle2
                  {
                    OFFSET 3.61397 0 0
                    CHANNELS 6 Xposition Yposition Zposition Zrotation Xrotation Yrotation
                    JOINT LeftHandMiddle3
                    {
                      OFFSET 3.45976 0 -2.64197e-005
                      CHANNELS 6 Xposition Yposition Zposition Zrotation Xrotation Yrotation
                      End Site
                      {
                        OFFSET 3.68019 0 3.27692e-005
                      }
                    }
                  }
                }
                JOINT LeftHandThumb1
                {
                  OFFSET 3.78881 -2.167 3.00309
                  CHANNELS 6 Xposition Yposition Zposition Zrotation Xrotation Yrotation
                  JOINT LeftHandThumb2
                  {
                    OFFSET 3.67544 -2.12201 2.12201
                    CHANNELS 6 Xposition Yposition Zposition Zrotation Xrotation Yrotation
                    JOINT LeftHandThumb3
                    {
                      OFFSET 3.39436 -1.95974 1.95979
                      CHANNELS 6 Xposition Yposition Zposition Zrotation Xrotation Yrotation
                      End Site
                      {
                        OFFSET 2.6794 -1.54694 1.54692
                      }
                    }
                  }
                }
                JOINT LeftHandIndex1
                {
                  OFFSET 12.2666 -0.231669 2.82206
                  CHANNELS 6 Xposition Yposition Zposition Zrotation Xrotation Yrotation
                  JOINT LeftHandIndex2
                  {
                    OFFSET 3.89197 0 3.87215e-005
                    CHANNELS 6 Xposition Yposition Zposition Zrotation Xrotation Yrotation
                    JOINT LeftHandIndex3
                    {
                      OFFSET 3.41516 0 0
                      CHANNELS 6 Xposition Yposition Zposition Zrotation Xrotation Yrotation
                      End Site
                      {
                        OFFSET 3.07799 0 0
                      }
                    }
                  }
                }
                JOINT LeftHandRing1
                {
                  OFFSET 12.147 0.00989498 -2.21663
                  CHANNELS 6 Xposition Yposition Zposition Zrotation Xrotation Yrotation
                  JOINT LeftHandRing2
                  {
                    OFFSET 3.60119 0 3.51122e-005
                    CHANNELS 6 Xposition Yposition Zposition Zrotation Xrotation Yrotation
                    JOINT LeftHandRing3
                    {
                      OFFSET 3.30732 0 -2.08933e-005
                      CHANNELS 6 Xposition Yposition Zposition Zrotation Xrotation Yrotation
                      End Site
                      {
                        OFFSET 3.66012 0 0
                      }
                    }
                  }
                }
                JOINT LeftHandPinky1
                {
                  OFFSET 10.9082 -0.226365 -4.72582
                  CHANNELS 6 Xposition Yposition Zposition Zrotation Xrotation Yrotation
                  JOINT LeftHandPinky2
                  {
                    OFFSET 4.13665 0 2.68984e-005
                    CHANNELS 6 Xposition Yposition Zposition Zrotation Xrotation Yrotation
                    JOINT LeftHandPinky3
                    {
                      OFFSET 2.59484 0 -3.6009e-005
                      CHANNELS 6 Xposition Yposition Zposition Zrotation Xrotation Yrotation
                      End Site
                      {
                        OFFSET 2.92387 0 1.87321e-005
                      }
                    }
                  }
                }
              }
            }
          }
        }
        JOINT RightShoulder
        {
          OFFSET -6.1057 9.11051 0.705563
          CHANNELS 6 Xposition Yposition Zposition Zrotation Xrotation Yrotation
          JOINT RightArm
          {
            OFFSET -12.655 -0.266021 -2.6009
            CHANNELS 6 Xposition Yposition Zposition Zrotation Xrotation Yrotation
            JOINT RightForeArm
            {
              OFFSET -27.4047 3.28841e-005 0
              CHANNELS 6 Xposition Yposition Zposition Zrotation Xrotation Yrotation
              JOINT RightHand
              {
                OFFSET -27.6145 2.26615e-005 1.83241e-005
                CHANNELS 6 Xposition Yposition Zposition Zrotation Xrotation Yrotation
                JOINT RightHandMiddle1
                {
                  OFFSET -12.7755 0 1.80116e-005
                  CHANNELS 6 Xposition Yposition Zposition Zrotation Xrotation Yrotation
                  JOINT RightHandMiddle2
                  {
                    OFFSET -3.61397 0 0
                    CHANNELS 6 Xposition Yposition Zposition Zrotation Xrotation Yrotation
                    JOINT RightHandMiddle3
                    {
                      OFFSET -3.45976 0 -2.64579e-005
                      CHANNELS 6 Xposition Yposition Zposition Zrotation Xrotation Yrotation
                      End Site
                      {
                        OFFSET -3.68019 0 3.25098e-005
                      }
                    }
                  }
                }
                JOINT RightHandThumb1
                {
                  OFFSET -3.78881 -2.167 3.00309
                  CHANNELS 6 Xposition Yposition Zposition Zrotation Xrotation Yrotation
                  JOINT RightHandThumb2
                  {
                    OFFSET -3.67544 -2.12201 2.12201
                    CHANNELS 6 Xposition Yposition Zposition Zrotation Xrotation Yrotation
                    JOINT RightHandThumb3
                    {
                      OFFSET -3.39436 -1.95975 1.95979
                      CHANNELS 6 Xposition Yposition Zposition Zrotation Xrotation Yrotation
                      End Site
                      {
                        OFFSET -2.6794 -1.54695 1.54692
                      }
                    }
                  }
                }
                JOINT RightHandIndex1
                {
                  OFFSET -12.2666 -0.231673 2.82206
                  CHANNELS 6 Xposition Yposition Zposition Zrotation Xrotation Yrotation
                  JOINT RightHandIndex2
                  {
                    OFFSET -3.89197 0 3.7513e-005
                    CHANNELS 6 Xposition Yposition Zposition Zrotation Xrotation Yrotation
                    JOINT RightHandIndex3
                    {
                      OFFSET -3.41516 0 0
                      CHANNELS 6 Xposition Yposition Zposition Zrotation Xrotation Yrotation
                      End Site
                      {
                        OFFSET -3.07799 0 0
                      }
                    }
                  }
                }
                JOINT RightHandRing1
                {
                  OFFSET -12.147 0.0098909 -2.21663
                  CHANNELS 6 Xposition Yposition Zposition Zrotation Xrotation Yrotation
                  JOINT RightHandRing2
                  {
                    OFFSET -3.60119 0 3.4867e-005
                    CHANNELS 6 Xposition Yposition Zposition Zrotation Xrotation Yrotation
                    JOINT RightHandRing3
                    {
                      OFFSET -3.30732 0 -2.11146e-005
                      CHANNELS 6 Xposition Yposition Zposition Zrotation Xrotation Yrotation
                      End Site
                      {
                        OFFSET -3.66012 0 0
                      }
                    }
                  }
                }
                JOINT RightHandPinky1
                {
                  OFFSET -10.9082 -0.226369 -4.72582
                  CHANNELS 6 Xposition Yposition Zposition Zrotation Xrotation Yrotation
                  JOINT RightHandPinky2
                  {
                    OFFSET -4.13665 0 2.56096e-005
                    CHANNELS 6 Xposition Yposition Zposition Zrotation Xrotation Yrotation
                    JOINT RightHandPinky3
                    {
                      OFFSET -2.59484 0 -3.66612e-005
                      CHANNELS 6 Xposition Yposition Zposition Zrotation Xrotation Yrotation
                      End Site
                      {
                        OFFSET -2.92387 0 1.86957e-005
                      }
                    }
                  }
                }
              }
            }
          }
        }
      }
    }
  }
  JOINT RightUpLeg
  {
    OFFSET -9.12445 -6.6564 -0.0553779
    CHANNELS 6 Xposition Yposition Zposition Zrotation Xrotation Yrotation
    JOINT RightLeg
    {
      OFFSET -0.24468 -40.5954 -0.514528
      CHANNELS 6 Xposition Yposition Zposition Zrotation Xrotation Yrotation
      JOINT RightFoot
      {
        OFFSET 0.244669 -42.0479 -2.06023
        CHANNELS 6 Xposition Yposition Zposition Zrotation Xrotation Yrotation
        JOINT RightToeBase
        {
          OFFSET -0.37336 -10.4922 12.6407
          CHANNELS 6 Xposition Yposition Zposition Zrotation Xrotation Yrotation
          End Site
          {
            OFFSET 0 0 9.99252
          }
        }
      }
    }
  }
  JOINT LeftUpLeg
  {
    OFFSET 9.12445 -6.6564 -0.0553779
    CHANNELS 6 Xposition Yposition Zposition Zrotation Xrotation Yrotation
    JOINT LeftLeg
    {
      OFFSET 0.24468 -40.5954 -0.517041
      CHANNELS 6 Xposition Yposition Zposition Zrotation Xrotation Yrotation
      JOINT LeftFoot
      {
        OFFSET -0.24467 -42.048 -2.05764
        CHANNELS 6 Xposition Yposition Zposition Zrotation Xrotation Yrotation
        JOINT LeftToeBase
        {
          OFFSET 0.37336 -10.4922 12.6407
          CHANNELS 6 Xposition Yposition Zposition Zrotation Xrotation Yrotation
          End Site
          {
            OFFSET 0 0 9.99252
          }
        }
      }
    }
  }
}
MOTION
Frames: 4
Frame Time: 0.0166667
-1.53133 91.7847 0.210903 -1.9765 11.5249 2.17728 5.64832e-007 9.92346 -1.22733 -1.23237 3.00741 -0.705225 -0.000138865 11.6454 -1.42234 -0.886832 6.19767 -1.62132 9.14407e-005 13.3602 -1.62646 -0.881569 6.19342 -1.64006 2.52021e-005 15.0325 0.792905 1.79205 -3.61906 1.14889 2.37075e-006 10.3218 3.14243 7.14445 -11.1022 0.891544 0.000154173 18.4747 6.6364 -5.96354e-016 3.18055e-015 3.97569e-016 2.94792 7.68175 9.12073 -5.96354e-016 3.18055e-015 3.97569e-016 -2.94448 7.68175 9.1205 -5.96354e-016 3.18055e-015 3.97569e-016 6.10582 9.11042 0.705551 -9.96324 0.280204 1.8869 12.655 -0.265934 -2.60092 6.45446 32.4859 -92.4327 27.4047 3.91267e-005 6.58811e-006 -3.07331e-005 -3.62013e-006 -96.8127 27.6145 2.89518e-005 1.96466e-005 -25.5409 -36.3335 1.55262 12.7755 1.3342e-005 2.04185e-005 -30.3248 -0.946513 3.49177 3.61397 2.66014e-006 2.46236e-006 -22.0628 -0.506364 2.59698 3.45976 5.43247e-007 -2.64197e-005 -11.0262 -0.1276 1.32196 3.78881 -2.167 3.00309 12.1976 -9.59293 4.00117 3.67544 -2.12201 2.12201 4.0543 -1.74021 25.8581 3.39436 -1.95974 1.95979 3.91277 -3.24006 10.8018 12.2666 -0.231669 2.82206 -30.3408 -0.947491 3.49343 3.89197 1.68687e-006 3.87215e-005 -22.0468 -0.505629 2.59521 3.41516 5.74911e-007 -8.77053e-006 -11.0262 -0.12761 1.32196 12.147 0.00989498 -2.21663 -30.3408 -0.947491 3.49343 3.60119 1.51294e-006 3.51122e-005 -22.0468 -0.505629 2.59521 3.30732 4.53174e-006 -2.08933e-005 -11.0262 -0.12761 1.32196 10.9082 -0.226365 -4.72582 -29.8332 -0.898399 7.55596 4.13665 2.29995e-006 2.68984e-005 -22.5398 1.03291 -1.15601 2.59484 5.93904e-008 -3.6009e-005 -11.0262 -0.127596 1.32196 -6.1057 9.11051 0.705563 11.5379 0.197604 -2.52091 -12.655 -0.266021 -2.6009 37.6145 42.9781 49.665 -27.4047 3.28841e-005 5.27564e-006 2.4783e-007 -2.8441e-006 11.749 -27.6145 2.26615e-005 1.83241e-005 5.19728 -13.747 4.40485 -12.7755 8.94577e-006 1.80116e-005 1.28339e-006 -5.93743e-007 -3.30325e-006 -3.61397 2.7565e-006 3.08034e-006 2.78418e-005 -3.51962e-007 -1.40853e-005 -3.45976 -1.97218e-007 -2.64579e-005 1.46105e-005 -1.98612e-006 9.04626e-006 -3.78881 -2.167 3.00309 -17.8481 3.10914 -5.87485 -3.67544 -2.12201 2.12201 -1.02094 6.21607 -21.8032 -3.39436 -1.95975 1.95979 -2.77734 -0.353712 -6.50639 -12.2666 -0.231673 2.82206 1.28339e-006 -5.93743e-007 -3.30325e-006 -3.89197 -7.20555e-008 3.7513e-005 1.15472e-006 4.69151e-006 -4.37256e-006 -3.41516 2.52991e-007 -8.60584e-006 3.1763e-006 -5.68108e-006 -2.91377e-006 -12.147 0.0098909 -2.21663 1.28339e-006 -5.93743e-007 -3.30325e-006 -3.60119 2.38565e-007 3.4867e-005 1.20609e-005 -3.51661e-007 -8.17393e-006 -3.30732 3.76018e-006 -2.11146e-005 -3.38407e-006 -5.42504e-006 -8.15613e-006 -10.9082 -0.226369 -4.72582 1.28339e-006 -5.93743e-007 -3.30325e-006 -4.13665 4.31063e-007 2.56096e-005 1.15472e-006 4.69151e-006 -4.37256e-006 -2.59484 -9.57149e-007 -3.66612e-005 3.1763e-006 -5.68108e-006 -2.91377e-006 -9.12445 -6.6564 -0.0553779 4.6049 -50.1745 -0.0369334 -0.24468 -40.5954 -0.514528 -0.541829 26.416 -8.09033 0.244669 -42.0479 -2.06023 -4.84049 -8.33301 -1.73293 -0.37336 -10.4922 12.6407 1.45139e-006 0.0164995 9.64974e-006 9.12445 -6.6564 -0.0553779 6.37685 0.89517 14.6169 0.24468 -40.5954 -0.517041 -0.606318 32.0122 -9.12798 -0.24467 -42.048 -2.05764 6.01841 -4.34356 -1.82658 0.37336 -10.4922 12.6407 -5.08396 -36.5797 -2.58767 
-1.95632 91.3342 0.406847 -2.77079 10.9821 2.85419 5.64832e-007 9.92346 -1.22733 -0.8185 3.13974 -0.619791 -0.000138865 11.6454 -1.42234 -0.621903 6.37436 -1.65057 9.14407e-005 13.3602 -1.62646 -0.619042 6.37099 -1.66502 2.52021e-005 15.0325 0.792905 1.95994 -3.56423 1.06248 2.37075e-006 10.3218 3.14243 7.06839 -11.0462 0.621362 0.000154173 18.4747 6.6364 2.98177e-016 1.59028e-015 -3.97569e-016 2.94792 7.68175 9.12073 2.98177e-016 1.59028e-015 -3.97569e-016 -2.94448 7.68175 9.1205 2.98177e-016 1.59028e-015 -3.97569e-016 6.10582 9.11042 0.705551 -9.94019 0.30835 1.7193 12.655 -0.265934 -2.60092 6.41674 32.3641 -92.2012 27.4047 3.91267e-005 6.58811e-006 1.51487e-005 -1.82956e-006 -96.8864 27.6145 2.89518e-005 1.96466e-005 -25.4658 -36.3984 1.35177 12.7755 1.3342e-005 2.04185e-005 -30.3248 -0.946513 3.49177 3.61397 2.66014e-006 2.46236e-006 -22.0628 -0.506363 2.59697 3.45976 5.43247e-007 -2.64197e-005 -11.0262 -0.127616 1.32198 3.78881 -2.167 3.00309 12.1976 -9.59293 4.00117 3.67544 -2.12201 2.12201 4.0543 -1.74021 25.8581 3.39436 -1.95974 1.95979 3.91277 -3.24006 10.8018 12.2666 -0.231669 2.82206 -30.3408 -0.947491 3.49343 3.89197 1.68687e-006 3.87215e-005 -22.0468 -0.505637 2.5952 3.41516 5.74911e-007 -8.77053e-006 -11.0262 -0.127618 1.32198 12.147 0.00989498 -2.21663 -30.3408 -0.947491 3.49343 3.60119 1.51294e-006 3.51122e-005 -22.0468 -0.505637 2.5952 3.30732 4.53174e-006 -2.08933e-005 -11.0262 -0.127618 1.32198 10.9082 -0.226365 -4.72582 -29.8332 -0.898399 7.55596 4.13665 2.29995e-006 2.68984e-005 -22.5398 1.03289 -1.15601 2.59484 5.93904e-008 -3.6009e-005 -11.0262 -0.127613 1.32198 -6.1057 9.11051 0.705563 11.6391 0.179937 -2.61818 -12.655 -0.266021 -2.6009 37.5163 42.8166 50.2481 -27.4047 3.28841e-005 5.27564e-006 -3.23786e-006 -1.24972e-005 10.7588 -27.6145 2.26615e-005 1.83241e-005 5.27414 -13.8442 4.79479 -12.7755 8.94577e-006 1.80116e-005 1.28339e-006 -5.93743e-007 -3.30325e-006 -3.61397 2.7565e-006 3.08034e-006 2.78418e-005 -3.51962e-007 -1.40853e-005 -3.45976 -1.97218e-007 -2.64579e-005 1.46105e-005 -1.98612e-006 9.04626e-006 -3.78881 -2.167 3.00309 -17.8481 3.10914 -5.87485 -3.67544 -2.12201 2.12201 -1.02094 6.21607 -21.8032 -3.39436 -1.95975 1.95979 -2.77734 -0.353712 -6.50639 -12.2666 -0.231673 2.82206 1.28339e-006 -5.93743e-007 -3.30325e-006 -3.89197 -7.20555e-008 3.7513e-005 1.15472e-006 4.69151e-006 -4.37256e-006 -3.41516 2.52991e-007 -8.60584e-006 3.1763e-006 -5.68108e-006 -2.91377e-006 -12.147 0.0098909 -2.21663 1.28339e-006 -5.93743e-007 -3.30325e-006 -3.60119 2.38565e-007 3.4867e-005 1.20609e-005 -3.51661e-007 -8.17393e-006 -3.30732 3.76018e-006 -2.11146e-005 -3.38407e-006 -5.42504e-006 -8.15613e-006 -10.9082 -0.226369 -4.72582 1.28339e-006 -5.93743e-007 -3.30325e-006 -4.13665 4.31063e-007 2.56096e-005 1.15472e-006 4.69151e-006 -4.37256e-006 -2.59484 -9.57149e-007 -3.66612e-005 3.1763e-006 -5.68108e-006 -2.91377e-006 -9.12445 -6.6564 -0.0553779 5.60268 -50.1674 0.733169 -0.24468 -40.5954 -0.514528 -0.610903 29.5125 -9.23147 0.244669 -42.0479 -2.06023 -4.29471 -3.614 -1.96831 -0.37336 -10.4922 12.6407 1.0338e-007 -0.05418 2.89463e-006 9.12445 -6.6564 -0.0553779 8.36545 0.722372 14.793 0.24468 -40.5954 -0.517041 -0.628352 34.7283 -9.46996 -0.24467 -42.048 -2.05764 5.79906 3.24255 -2.48964 0.37336 -10.4922 12.6407 -5.33172 -45.4071 -3.03849 
-2.3162 90.8644 0.487034 -3.5673 10.4183 3.33512 5.64832e-007 9.92346 -1.22733 -0.411041 3.27219 -0.564698 -0.000138865 11.6454 -1.42234 -0.389133 6.56762 -1.62143 9.14407e-005 13.3602 -1.62646 -0.388123 6.56509 -1.63243 2.52021e-005 15.0325 0.792905 2.14401 -3.51425 0.983055 2.37075e-006 10.3218 3.14243 6.9588 -11.0751 0.413771 0.000154173 18.4747 6.6364 -2.98177e-016 1.59028e-015 3.97569e-016 2.94792 7.68175 9.12073 -2.98177e-016 1.59028e-015 3.97569e-016 -2.94448 7.68175 9.1205 -2.98177e-016 1.59028e-015 3.97569e-016 6.10582 9.11042 0.705551 -9.93016 0.327096 1.60903 12.655 -0.265934 -2.60092 6.32457 32.2278 -91.9539 27.4047 3.91267e-005 6.58811e-006 4.5888e-005 1.84247e-006 -96.9353 27.6145 2.89518e-005 1.96466e-005 -25.4064 -36.4865 1.11766 12.7755 1.3342e-005 2.04185e-005 -30.3248 -0.946513 3.49177 3.61397 2.66014e-006 2.46236e-006 -22.0628 -0.506365 2.59699 3.45976 5.43247e-007 -2.64197e-005 -11.0262 -0.127589 1.32198 3.78881 -2.167 3.00309 12.1976 -9.59293 4.00117 3.67544 -2.12201 2.12201 4.0543 -1.74021 25.8581 3.39436 -1.95974 1.95979 3.91277 -3.24006 10.8018 12.2666 -0.231669 2.82206 -30.3408 -0.947491 3.49343 3.89197 1.68687e-006 3.87215e-005 -22.0468 -0.505643 2.59522 3.41516 5.74911e-007 -8.77053e-006 -11.0262 -0.12759 1.32198 12.147 0.00989498 -2.21663 -30.3408 -0.947491 3.49343 3.60119 1.51294e-006 3.51122e-005 -22.0468 -0.505643 2.59522 3.30732 4.53174e-006 -2.08933e-005 -11.0262 -0.12759 1.32198 10.9082 -0.226365 -4.72582 -29.8332 -0.898399 7.55596 4.13665 2.29995e-006 2.68984e-005 -22.5397 1.0329 -1.15601 2.59484 5.93904e-008 -3.6009e-005 -11.0262 -0.127588 1.32197 -6.1057 9.11051 0.705563 11.6918 0.167043 -2.68704 -12.655 -0.266021 -2.6009 37.4598 42.6335 50.7205 -27.4047 3.28841e-005 5.27564e-006 1.44836e-006 8.28286e-007 10.045 -27.6145 2.26615e-005 1.83241e-005 5.16952 -13.7891 5.10317 -12.7755 8.94577e-006 1.80116e-005 1.28339e-006 -5.93743e-007 -3.30325e-006 -3.61397 2.7565e-006 3.08034e-006 2.78418e-005 -3.51962e-007 -1.40853e-005 -3.45976 -1.97218e-007 -2.64579e-005 1.46105e-005 -1.98612e-006 9.04626e-006 -3.78881 -2.167 3.00309 -17.8481 3.10914 -5.87485 -3.67544 -2.12201 2.12201 -1.02094 6.21607 -21.8032 -3.39436 -1.95975 1.95979 -2.77734 -0.353712 -6.50639 -12.2666 -0.231673 2.82206 1.28339e-006 -5.93743e-007 -3.30325e-006 -3.89197 -7.20555e-008 3.7513e-005 1.15472e-006 4.69151e-006 -4.37256e-006 -3.41516 2.52991e-007 -8.60584e-006 3.1763e-006 -5.68108e-006 -2.91377e-006 -12.147 0.0098909 -2.21663 1.28339e-006 -5.93743e-007 -3.30325e-006 -3.60119 2.38565e-007 3.4867e-005 1.20609e-005 -3.51661e-007 -8.17393e-006 -3.30732 3.76018e-006 -2.11146e-005 -3.38407e-006 -5.42504e-006 -8.15613e-006 -10.9082 -0.226369 -4.72582 1.28339e-006 -5.93743e-007 -3.30325e-006 -4.13665 4.31063e-007 2.56096e-005 1.15472e-006 4.69151e-006 -4.37256e-006 -2.59484 -9.57149e-007 -3.66612e-005 3.1763e-006 -5.68108e-006 -2.91377e-006 -9.12445 -6.6564 -0.0553779 6.74501 -49.8345 1.50363 -0.24468 -40.5954 -0.514528 -0.664325 32.3623 -9.62527 0.244669 -42.0479 -2.06023 -3.59873 -0.292989 -2.15819 -0.37336 -10.4922 12.6407 -8.60375e-007 -0.102635 -4.56039e-007 9.12445 -6.6564 -0.0553779 10.5718 -0.710536 14.3243 0.24468 -40.5954 -0.517041 -0.655334 39.6523 -9.33342 -0.24467 -42.048 -2.05764 3.63693 9.17451 -2.59125 0.37336 -10.4922 12.6407 -3.71929 -48.7222 -2.22389 
-2.61333 90.3742 0.480215 -4.37829 9.87119 3.67177 5.64832e-007 9.92346 -1.22733 0.0275816 3.40361 -0.518885 -0.000138865 11.6454 -1.42234 -0.180427 6.76683 -1.56194 9.14407e-005 13.3602 -1.62646 -0.180972 6.76514 -1.5696 2.52021e-005 15.0325 0.792905 2.33157 -3.46729 0.910596 2.37075e-006 10.3218 3.14243 6.8338 -11.1375 0.248986 0.000154173 18.4747 6.6364 5.96354e-016 0 -0 2.94792 7.68175 9.12073 5.96354e-016 0 -0 -2.94448 7.68175 9.1205 5.96354e-016 0 -0 6.10582 9.11042 0.705551 -9.92887 0.339747 1.53601 12.655 -0.265934 -2.60092 6.22781 32.0826 -91.7208 27.4047 3.91267e-005 6.58811e-006 1.49211e-005 -5.54972e-006 -96.9634 27.6145 2.89518e-005 1.96466e-005 -25.3385 -36.5886 0.868679 12.7755 1.3342e-005 2.04185e-005 -30.3248 -0.946513 3.49177 3.61397 2.66014e-006 2.46236e-006 -22.0628 -0.506366 2.59698 3.45976 5.43247e-007 -2.64197e-005 -11.0262 -0.127588 1.322 3.78881 -2.167 3.00309 12.1976 -9.59293 4.00117 3.67544 -2.12201 2.12201 4.0543 -1.74021 25.8581 3.39436 -1.95974 1.95979 3.91277 -3.24006 10.8018 12.2666 -0.231669 2.82206 -30.3408 -0.947491 3.49343 3.89197 1.68687e-006 3.87215e-005 -22.0468 -0.505626 2.59519 3.41516 5.74911e-007 -8.77053e-006 -11.0262 -0.12762 1.322 12.147 0.00989498 -2.21663 -30.3408 -0.947491 3.49343 3.60119 1.51294e-006 3.51122e-005 -22.0468 -0.505626 2.59519 3.30732 4.53174e-006 -2.08933e-005 -11.0262 -0.12762 1.322 10.9082 -0.226365 -4.72582 -29.8332 -0.898399 7.55596 4.13665 2.29995e-006 2.68984e-005 -22.5398 1.03292 -1.15602 2.59484 5.93904e-008 -3.6009e-005 -11.0262 -0.127597 1.32199 -6.1057 9.11051 0.705563 11.7198 0.157001 -2.73938 -12.655 -0.266021 -2.6009 37.4787 42.4313 51.0987 -27.4047 3.28841e-005 5.27564e-006 6.19879e-006 2.95556e-006 9.4372 -27.6145 2.26615e-005 1.83241e-005 4.93283 -13.5888 5.37067 -12.7755 8.94577e-006 1.80116e-005 1.28339e-006 -5.93743e-007 -3.30325e-006 -3.61397 2.7565e-006 3.08034e-006 2.78418e-005 -3.51962e-007 -1.40853e-005 -3.45976 -1.97218e-007 -2.64579e-005 1.46105e-005 -1.98612e-006 9.04626e-006 -3.78881 -2.167 3.00309 -17.8481 3.10914 -5.87485 -3.67544 -2.12201 2.12201 -1.02094 6.21607 -21.8032 -3.39436 -1.95975 1.95979 -2.77734 -0.353712 -6.50639 -12.2666 -0.231673 2.82206 1.28339e-006 -5.93743e-007 -3.30325e-006 -3.89197 -7.20555e-008 3.7513e-005 1.15472e-006 4.69151e-006 -4.37256e-006 -3.41516 2.52991e-007 -8.60584e-006 3.1763e-006 -5.68108e-006 -2.91377e-006 -12.147 0.0098909 -2.21663 1.28339e-006 -5.93743e-007 -3.30325e-006 -3.60119 2.38565e-007 3.4867e-005 1.20609e-005 -3.51661e-007 -8.17393e-006 -3.30732 3.76018e-006 -2.11146e-005 -3.38407e-006 -5.42504e-006 -8.15613e-006 -10.9082 -0.226369 -4.72582 1.28339e-006 -5.93743e-007 -3.30325e-006 -4.13665 4.31063e-007 2.56096e-005 1.15472e-006 4.69151e-006 -4.37256e-006 -2.59484 -9.57149e-007 -3.66612e-005 3.1763e-006 -5.68108e-006 -2.91377e-006 -9.12445 -6.6564 -0.0553779 7.9578 -49.3507 2.21846 -0.24468 -40.5954 -0.514528 -0.699701 35.0643 -9.70203 0.244669 -42.0479 -2.06023 -2.91756 1.83301 -2.32804 -0.37336 -10.4922 12.6407 1.15303e-006 -0.109682 -2.05617e-006 9.12445 -6.6564 -0.0553779 12.6215 -2.54175 13.4916 0.24468 -40.5954 -0.517041 -0.674908 44.7527 -9.15444 -0.24467 -42.048 -2.05764 0.555173 15.0615 -1.82694 0.37336 -10.4922 12.6407 -2.04936 -49.668 -1.22108 
